<?xml version="1.0" encoding="UTF-8"?>
<svg version="1.1" xmlns="http://www.w3.org/2000/svg" width="64" height="64">
<path d="M0 0 C5.47598253 2.68995633 5.47598253 2.68995633 6.875 6.1875 C7.24625 6.785625 7.6175 7.38375 8 8 C9.99190309 8.22857904 11.98536892 8.45086936 13.984375 8.60546875 C17.30090348 9.25463421 18.81629695 11.53633502 21 14 C22.21233563 14.85763481 23.4425085 15.69049935 24.6875 16.5 C27.77858247 18.67520619 29.28275983 20.1448341 30 24 C30.1256426 28.18808675 30.00166047 30.88238665 27.12719727 34.08959961 C22.54622038 36.88811192 18.45936792 36.57357825 13.1875 36.53125 C11.61778442 36.53699036 11.61778442 36.53699036 10.01635742 36.54284668 C7.80744462 36.54556438 5.59849956 36.53821322 3.38964844 36.52148438 C0.01163881 36.50007377 -3.3642439 36.52129197 -6.7421875 36.546875 C-8.89062969 36.5442317 -11.03907055 36.53910668 -13.1875 36.53125 C-14.70017456 36.54339539 -14.70017456 36.54339539 -16.2434082 36.55578613 C-20.68194805 36.4965324 -23.27595995 36.44313513 -27.125 34.08740234 C-29.61624068 31.3139508 -29.90448955 29.63631237 -30.1328125 26.0234375 C-29.91778849 22.74748351 -28.83353235 20.68918078 -27 18 C-26.175 17.38125 -25.35 16.7625 -24.5 16.125 C-21.88844504 13.90517828 -21.54529259 13.17370731 -20.5625 10.0625 C-19.08193821 5.50168898 -16.88954255 3.73095541 -13 1 C-9.05322303 -0.97338848 -4.30160477 -0.44290148 0 0 Z " fill="#d91c81" transform="translate(32,14)"/>
<path d="M0 0 C5.47598253 2.68995633 5.47598253 2.68995633 6.875 6.1875 C7.24625 6.785625 7.6175 7.38375 8 8 C9.99190309 8.22857904 11.98536892 8.45086936 13.984375 8.60546875 C17.30090348 9.25463421 18.81629695 11.53633502 21 14 C22.21233563 14.85763481 23.4425085 15.69049935 24.6875 16.5 C27.77858247 18.67520619 29.28275983 20.1448341 30 24 C30.1256426 28.18808675 30.00166047 30.88238665 27.12719727 34.08959961 C22.54622038 36.88811192 18.45936792 36.57357825 13.1875 36.53125 C11.61778442 36.53699036 11.61778442 36.53699036 10.01635742 36.54284668 C7.80744462 36.54556438 5.59849956 36.53821322 3.38964844 36.52148438 C0.01163881 36.50007377 -3.3642439 36.52129197 -6.7421875 36.546875 C-8.89062969 36.5442317 -11.03907055 36.53910668 -13.1875 36.53125 C-14.70017456 36.54339539 -14.70017456 36.54339539 -16.2434082 36.55578613 C-20.68194805 36.4965324 -23.27595995 36.44313513 -27.125 34.08740234 C-29.61624068 31.3139508 -29.90448955 29.63631237 -30.1328125 26.0234375 C-29.91778849 22.74748351 -28.83353235 20.68918078 -27 18 C-26.175 17.38125 -25.35 16.7625 -24.5 16.125 C-21.88844504 13.90517828 -21.54529259 13.17370731 -20.5625 10.0625 C-19.08193821 5.50168898 -16.88954255 3.73095541 -13 1 C-9.05322303 -0.97338848 -4.30160477 -0.44290148 0 0 Z M-16 7 C-18.22159535 9.81006988 -18.22159535 9.81006988 -18.25 12.9375 C-19 16 -19 16 -21.9375 18.1875 C-23.4534375 19.0846875 -23.4534375 19.0846875 -25 20 C-27.32749345 23.49124017 -27.50299316 24.89222251 -27 29 C-25.68287977 31.36271557 -25.68287977 31.36271557 -23 33 C-19.56584908 33.60593333 -16.16722506 33.56020689 -12.6875 33.53125 C-11.17869263 33.53699036 -11.17869263 33.53699036 -9.6394043 33.54284668 C-7.51447549 33.54556651 -5.38951324 33.53820041 -3.26464844 33.52148438 C-0.01161068 33.50007641 3.23921845 33.52128432 6.4921875 33.546875 C8.55729654 33.54423174 10.62240421 33.53910679 12.6875 33.53125 C14.14700073 33.54339539 14.14700073 33.54339539 15.63598633 33.55578613 C20.9723977 33.52185376 20.9723977 33.52185376 25.6484375 31.18945312 C27.31945693 28.92345441 27.31945693 28.92345441 26.9375 25.4375 C25.88348639 21.52519511 25.88348639 21.52519511 23 19 C22.01 18.67 21.02 18.34 20 18 C19.29875 17.05125 18.5975 16.1025 17.875 15.125 C15.13723816 11.63227959 12.31957885 10.94310677 8.15234375 9.78515625 C4.97886444 8.62749864 3.17934921 6.50955364 1 4 C-4.99510463 1.00244768 -11.14321388 2.85396307 -16 7 Z " fill="#073E6B" transform="translate(32,14)"/>
</svg>
