<?xml version="1.0" encoding="UTF-8"?>
<svg version="1.1" xmlns="http://www.w3.org/2000/svg" width="64" height="64">
<path d="M0 0 C1.56220024 0.00999275 1.56220024 0.00999275 3.15596008 0.02018738 C4.33695786 0.02041397 5.51795563 0.02064056 6.73474121 0.02087402 C8.00981033 0.03635788 9.28487946 0.05184174 10.59858704 0.0677948 C11.90390884 0.07203964 13.20923065 0.07628448 14.55410767 0.08065796 C18.02142107 0.09210266 21.48835641 0.12156601 24.95552063 0.1547699 C28.49469386 0.18547922 32.0339283 0.1991651 35.57319641 0.21427917 C42.51540883 0.2464365 49.4573704 0.29762801 56.39936829 0.36076355 C60.42705028 8.41612753 57.39936829 18.35459283 57.39936829 27.36076355 C36.60936829 27.36076355 15.81936829 27.36076355 -5.60063171 27.36076355 C-5.60063171 19.44076355 -5.60063171 11.52076355 -5.60063171 3.36076355 C-2.60063171 0.36076355 -2.60063171 0.36076355 0 0 Z M-0.60063171 5.36076355 C-0.60063171 6.68076355 -0.60063171 8.00076355 -0.60063171 9.36076355 C0.71936829 9.36076355 2.03936829 9.36076355 3.39936829 9.36076355 C3.39936829 8.04076355 3.39936829 6.72076355 3.39936829 5.36076355 C2.07936829 5.36076355 0.75936829 5.36076355 -0.60063171 5.36076355 Z M6.39936829 5.36076355 C6.39936829 6.68076355 6.39936829 8.00076355 6.39936829 9.36076355 C7.71936829 9.36076355 9.03936829 9.36076355 10.39936829 9.36076355 C10.39936829 8.04076355 10.39936829 6.72076355 10.39936829 5.36076355 C9.07936829 5.36076355 7.75936829 5.36076355 6.39936829 5.36076355 Z M13.39936829 5.36076355 C13.39936829 6.68076355 13.39936829 8.00076355 13.39936829 9.36076355 C14.71936829 9.36076355 16.03936829 9.36076355 17.39936829 9.36076355 C17.39936829 8.04076355 17.39936829 6.72076355 17.39936829 5.36076355 C16.07936829 5.36076355 14.75936829 5.36076355 13.39936829 5.36076355 Z M20.39936829 5.36076355 C20.39936829 6.68076355 20.39936829 8.00076355 20.39936829 9.36076355 C21.71936829 9.36076355 23.03936829 9.36076355 24.39936829 9.36076355 C24.39936829 8.04076355 24.39936829 6.72076355 24.39936829 5.36076355 C23.07936829 5.36076355 21.75936829 5.36076355 20.39936829 5.36076355 Z M27.39936829 5.36076355 C27.39936829 6.68076355 27.39936829 8.00076355 27.39936829 9.36076355 C28.71936829 9.36076355 30.03936829 9.36076355 31.39936829 9.36076355 C31.39936829 8.04076355 31.39936829 6.72076355 31.39936829 5.36076355 C30.07936829 5.36076355 28.75936829 5.36076355 27.39936829 5.36076355 Z M34.39936829 5.36076355 C34.39936829 6.68076355 34.39936829 8.00076355 34.39936829 9.36076355 C35.71936829 9.36076355 37.03936829 9.36076355 38.39936829 9.36076355 C38.39936829 8.04076355 38.39936829 6.72076355 38.39936829 5.36076355 C37.07936829 5.36076355 35.75936829 5.36076355 34.39936829 5.36076355 Z M41.39936829 5.36076355 C41.39936829 6.68076355 41.39936829 8.00076355 41.39936829 9.36076355 C42.71936829 9.36076355 44.03936829 9.36076355 45.39936829 9.36076355 C45.39936829 8.04076355 45.39936829 6.72076355 45.39936829 5.36076355 C44.07936829 5.36076355 42.75936829 5.36076355 41.39936829 5.36076355 Z M48.39936829 5.36076355 C48.39936829 6.68076355 48.39936829 8.00076355 48.39936829 9.36076355 C49.71936829 9.36076355 51.03936829 9.36076355 52.39936829 9.36076355 C52.39936829 8.04076355 52.39936829 6.72076355 52.39936829 5.36076355 C51.07936829 5.36076355 49.75936829 5.36076355 48.39936829 5.36076355 Z M-0.60063171 12.36076355 C-0.60063171 13.68076355 -0.60063171 15.00076355 -0.60063171 16.36076355 C1.37936829 16.36076355 3.35936829 16.36076355 5.39936829 16.36076355 C5.39936829 15.04076355 5.39936829 13.72076355 5.39936829 12.36076355 C3.41936829 12.36076355 1.43936829 12.36076355 -0.60063171 12.36076355 Z M8.39936829 12.36076355 C8.39936829 13.68076355 8.39936829 15.00076355 8.39936829 16.36076355 C9.71936829 16.36076355 11.03936829 16.36076355 12.39936829 16.36076355 C12.39936829 15.04076355 12.39936829 13.72076355 12.39936829 12.36076355 C11.07936829 12.36076355 9.75936829 12.36076355 8.39936829 12.36076355 Z M15.39936829 12.36076355 C15.39936829 13.68076355 15.39936829 15.00076355 15.39936829 16.36076355 C16.71936829 16.36076355 18.03936829 16.36076355 19.39936829 16.36076355 C19.39936829 15.04076355 19.39936829 13.72076355 19.39936829 12.36076355 C18.07936829 12.36076355 16.75936829 12.36076355 15.39936829 12.36076355 Z M22.39936829 12.36076355 C22.39936829 13.68076355 22.39936829 15.00076355 22.39936829 16.36076355 C23.71936829 16.36076355 25.03936829 16.36076355 26.39936829 16.36076355 C26.39936829 15.04076355 26.39936829 13.72076355 26.39936829 12.36076355 C25.07936829 12.36076355 23.75936829 12.36076355 22.39936829 12.36076355 Z M29.39936829 12.36076355 C29.39936829 13.68076355 29.39936829 15.00076355 29.39936829 16.36076355 C30.71936829 16.36076355 32.03936829 16.36076355 33.39936829 16.36076355 C33.39936829 15.04076355 33.39936829 13.72076355 33.39936829 12.36076355 C32.07936829 12.36076355 30.75936829 12.36076355 29.39936829 12.36076355 Z M36.39936829 12.36076355 C36.39936829 13.68076355 36.39936829 15.00076355 36.39936829 16.36076355 C37.71936829 16.36076355 39.03936829 16.36076355 40.39936829 16.36076355 C40.39936829 15.04076355 40.39936829 13.72076355 40.39936829 12.36076355 C39.07936829 12.36076355 37.75936829 12.36076355 36.39936829 12.36076355 Z M43.39936829 12.36076355 C43.39936829 13.68076355 43.39936829 15.00076355 43.39936829 16.36076355 C46.36936829 16.36076355 49.33936829 16.36076355 52.39936829 16.36076355 C52.39936829 15.04076355 52.39936829 13.72076355 52.39936829 12.36076355 C49.42936829 12.36076355 46.45936829 12.36076355 43.39936829 12.36076355 Z M-0.60063171 19.36076355 C-0.60063171 20.68076355 -0.60063171 22.00076355 -0.60063171 23.36076355 C1.04936829 23.36076355 2.69936829 23.36076355 4.39936829 23.36076355 C4.39936829 22.04076355 4.39936829 20.72076355 4.39936829 19.36076355 C2.74936829 19.36076355 1.09936829 19.36076355 -0.60063171 19.36076355 Z M7.39936829 19.36076355 C7.39936829 20.68076355 7.39936829 22.00076355 7.39936829 23.36076355 C8.71936829 23.36076355 10.03936829 23.36076355 11.39936829 23.36076355 C11.39936829 22.04076355 11.39936829 20.72076355 11.39936829 19.36076355 C10.07936829 19.36076355 8.75936829 19.36076355 7.39936829 19.36076355 Z M14.39936829 19.36076355 C14.39936829 20.68076355 14.39936829 22.00076355 14.39936829 23.36076355 C21.98936829 23.36076355 29.57936829 23.36076355 37.39936829 23.36076355 C37.39936829 22.04076355 37.39936829 20.72076355 37.39936829 19.36076355 C29.80936829 19.36076355 22.21936829 19.36076355 14.39936829 19.36076355 Z M40.39936829 19.36076355 C40.39936829 20.68076355 40.39936829 22.00076355 40.39936829 23.36076355 C41.71936829 23.36076355 43.03936829 23.36076355 44.39936829 23.36076355 C44.39936829 22.04076355 44.39936829 20.72076355 44.39936829 19.36076355 C43.07936829 19.36076355 41.75936829 19.36076355 40.39936829 19.36076355 Z M47.39936829 19.36076355 C47.39936829 20.68076355 47.39936829 22.00076355 47.39936829 23.36076355 C49.04936829 23.36076355 50.69936829 23.36076355 52.39936829 23.36076355 C52.39936829 22.04076355 52.39936829 20.72076355 52.39936829 19.36076355 C50.74936829 19.36076355 49.09936829 19.36076355 47.39936829 19.36076355 Z " fill="#d91c81" transform="translate(6.6006317138671875,24.639236450195313)"/>
<path d="M0 0 C2 1 2 1 3.25 4 C4.69074646 7.23994593 4.69074646 7.23994593 7.75 7.875 C11.06233394 8.04191468 11.06233394 8.04191468 14.625 7.875 C18 8 18 8 20.375 9.0625 C22.71005127 11.84659959 22.73214392 14.45090698 23 18 C21.68 18 20.36 18 19 18 C18.7525 17.195625 18.505 16.39125 18.25 15.5625 C17.29128946 12.92559077 17.29128946 12.92559077 15.3125 12.1875 C12.82342883 11.92585172 12.82342883 11.92585172 9.625 12.25 C4.60961615 11.90411146 3.29350598 10.77548246 0 7 C-0.375 3.1875 -0.375 3.1875 0 0 Z " fill="#d91c81" transform="translate(13,6)"/>
</svg>
