<?xml version="1.0" encoding="UTF-8"?>
<svg version="1.1" xmlns="http://www.w3.org/2000/svg" width="512" height="512">
<path d="M0 0 C9.67793014 9.13715948 15.7648286 18.31284568 16.36328125 31.91015625 C16.84287801 59.87295579 5.71706279 84.99336159 -4.28515625 110.6640625 C-17.80908994 143.93997238 -17.80908994 143.93997238 -15.22265625 178.7890625 C-12.23612635 185.02285111 -8.08228872 190.19486233 -3.22265625 195.0390625 C-2.69333496 195.56677246 -2.16401367 196.09448242 -1.61865234 196.63818359 C2.31758821 200.45242581 5.85327105 202.9514832 11.02734375 204.9140625 C11.90519531 205.26339844 12.78304688 205.61273438 13.6875 205.97265625 C42.48355243 214.08943828 76.90041577 195.49161739 102.8347168 185.40161133 C109.34471413 182.88849628 115.8760507 180.52651906 122.52734375 178.4140625 C123.24994385 178.18299805 123.97254395 177.95193359 124.71704102 177.71386719 C133.81961064 174.91307653 142.49886844 173.56819949 152.02734375 173.6015625 C152.94773437 173.58544922 153.868125 173.56933594 154.81640625 173.55273438 C167.40326588 173.54387039 177.98199086 177.98221811 187.21484375 186.5390625 C202.25188926 202.60687322 205.44911148 225.04909702 205.33984375 246.1640625 C205.3376886 246.91316895 205.33553345 247.66227539 205.33331299 248.43408203 C205.27348038 261.44646419 204.4697823 274.10674657 202.02734375 286.9140625 C201.83398438 287.92807129 201.640625 288.94208008 201.44140625 289.98681641 C193.31241576 331.05201758 175.939429 368.13446883 150.02734375 400.9140625 C149.21523438 401.95175781 148.403125 402.98945313 147.56640625 404.05859375 C134.90141688 419.62015009 120.35108778 434.21620667 104.02734375 445.9140625 C102.68208783 446.90336872 101.33704604 447.89296616 99.9921875 448.8828125 C68.68541284 471.68286042 33.127222 486.90234934 -4.97265625 493.9140625 C-5.7733252 494.07487305 -6.57399414 494.23568359 -7.39892578 494.40136719 C-35.46592669 499.8913835 -68.97449869 499.66349965 -96.97265625 493.9140625 C-97.98521484 493.71538574 -98.99777344 493.51670898 -100.04101562 493.31201172 C-141.13365674 485.09471455 -178.06902042 467.65389053 -210.97265625 441.9140625 C-211.51180664 441.49495605 -212.05095703 441.07584961 -212.60644531 440.64404297 C-228.8465193 427.88102375 -243.91727968 412.68979761 -255.97265625 395.9140625 C-256.83640895 394.74417794 -257.70101094 393.57492 -258.56640625 392.40625 C-273.70973367 371.7802382 -285.79187275 349.17109123 -293.97265625 324.9140625 C-294.38572021 323.69154785 -294.38572021 323.69154785 -294.80712891 322.44433594 C-298.04521131 312.67348573 -300.57751098 302.79187513 -302.72265625 292.7265625 C-302.92141357 291.80190186 -303.1201709 290.87724121 -303.32495117 289.92456055 C-306.61764652 273.71795073 -307.34795903 257.7836923 -307.28515625 241.2890625 C-307.2830011 240.27082397 -307.28084595 239.25258545 -307.27862549 238.20349121 C-307.22892234 223.5792741 -306.91473613 209.28601612 -303.97265625 194.9140625 C-303.68261719 193.41915283 -303.68261719 193.41915283 -303.38671875 191.89404297 C-295.75806406 153.28575122 -280.04523308 117.13239371 -255.97265625 85.9140625 C-255.00779297 84.66109375 -255.00779297 84.66109375 -254.0234375 83.3828125 C-239.93909924 65.45226006 -223.59582255 48.16465761 -204.97265625 34.9140625 C-204.35503418 34.46804687 -203.73741211 34.02203125 -203.10107422 33.5625 C-171.33662152 10.72208008 -135.55693635 -5.13990422 -96.97265625 -12.0859375 C-96.10286133 -12.24674805 -95.23306641 -12.40755859 -94.33691406 -12.57324219 C-65.03310617 -17.77351545 -24.28757612 -20.53363046 0 0 Z " fill="#d91c81" transform="translate(306.97265625,15.0859375)"/>
<path d="M0 0 C7.03407714 0 12.9940856 0.23401753 19.75 1.625 C20.61471924 1.80248779 21.47943848 1.97997559 22.37036133 2.1628418 C38.37700894 5.6603544 50.98180818 12.86958079 61 26 C69.37429322 39.17025343 68.79606338 57.13770555 65.6875 71.9375 C61.01449956 90.24914126 53.53759612 108.16922436 46.6875 125.75 C33.16356631 159.02590988 33.16356631 159.02590988 35.75 193.875 C38.7365299 200.10878861 42.89036753 205.28079983 47.75 210.125 C48.27932129 210.65270996 48.80864258 211.18041992 49.35400391 211.72412109 C53.29024446 215.53836331 56.8259273 218.0374207 62 220 C63.31677734 220.52400391 63.31677734 220.52400391 64.66015625 221.05859375 C93.45620868 229.17537578 127.87307202 210.57755489 153.80737305 200.48754883 C160.31737038 197.97443378 166.84870695 195.61245656 173.5 193.5 C174.2226001 193.26893555 174.9452002 193.03787109 175.68969727 192.79980469 C184.79226689 189.99901403 193.47152469 188.65413699 203 188.6875 C203.92039062 188.67138672 204.84078125 188.65527344 205.7890625 188.63867188 C218.37592213 188.62980789 228.95464711 193.06815561 238.1875 201.625 C253.22454551 217.69281072 256.42176773 240.13503452 256.3125 261.25 C256.31034485 261.99910645 256.3081897 262.74821289 256.30596924 263.52001953 C256.24613663 276.53240169 255.44243855 289.19268407 253 302 C252.80664062 303.01400879 252.61328125 304.02801758 252.4140625 305.07275391 C244.28507201 346.13795508 226.91208525 383.22040633 201 416 C200.18789063 417.03769531 199.37578125 418.07539063 198.5390625 419.14453125 C185.87407313 434.70608759 171.32374403 449.30214417 155 461 C153.65474408 461.98930622 152.30970229 462.97890366 150.96484375 463.96875 C116.39651255 489.14411911 76.85463082 504.73664754 34.5625 510.8125 C33.33285522 510.99897095 33.33285522 510.99897095 32.07836914 511.18920898 C21.33465879 512.56770496 10.9956443 512 0 512 C0 485.93 0 459.86 0 433 C5.94 436.465 5.94 436.465 12 440 C25.13090481 445.88626767 41.50009808 446.33683232 55.078125 441.32421875 C71.08601698 434.06930514 80.06944084 424.24954354 87.16796875 408.390625 C91.39940227 395.91484916 90.62221641 380.0585263 85.546875 368.01171875 C78.46866348 354.23065541 68.05333994 344.05089972 53.38671875 338.67578125 C37.7207971 334.0394493 23.38566955 334.89090555 8.9375 342.5625 C5.87604674 344.28804638 2.92417563 346.05054958 0 348 C0 233.16 0 118.32 0 0 Z " fill="#d91c81" transform="translate(256,0)"/>
<path d="M0 0 C7.0589721 6.03996038 12.98169618 12.54993346 17 21 C17.41121094 21.84304688 17.82242188 22.68609375 18.24609375 23.5546875 C23.23086531 35.73201871 22.85544916 51.82447657 18.3203125 64.08203125 C10.94908943 80.37287041 0.54285225 89.94937036 -15.60546875 97.1640625 C-28.07509824 101.40651196 -43.9454372 100.62054658 -55.98828125 95.546875 C-71.01537607 87.82867844 -81.25784098 75.87191648 -87 60 C-90.42839092 45.03845784 -89.26008381 29.30988746 -81.28515625 16.17578125 C-78.27209299 11.65948293 -75.03968613 7.64557041 -71 4 C-70.46246094 3.45859375 -69.92492187 2.9171875 -69.37109375 2.359375 C-50.47608338 -15.78614645 -20.46235116 -15.13653373 0 0 Z " fill="#d91c81" transform="translate(325,346)"/>
<path d="M0 0 C13.1407013 9.16105862 22.08137303 21.86234687 25.0625 37.75 C26.86399623 52.61050566 23.61125735 66.93530398 14.99609375 79.29296875 C5.42309046 91.45745172 -6.5768954 99.06268926 -21.9375 101.75 C-37.92744465 103.47425784 -51.80474218 99.70055244 -64.53125 89.71484375 C-75.78882657 80.1018228 -83.51617637 67.66489686 -85.16040039 52.72460938 C-86.05477626 36.76106246 -82.21233669 22.77678699 -71.87109375 10.24609375 C-63.73483106 1.64407005 -54.22566694 -3.8470842 -42.9375 -7.25 C-42.33292969 -7.44078125 -41.72835937 -7.6315625 -41.10546875 -7.828125 C-26.84852629 -10.60244894 -12.34485175 -7.36570431 0 0 Z " fill="#d91c81" transform="translate(186.9375,308.25)"/>
<path d="M0 0 C10.88364929 8.13714845 18.6193 19.50987683 21.4921875 32.86328125 C23.4409036 48.80207687 21.70812165 63.94853725 11.9296875 77.05078125 C10.80827506 78.3432152 9.66536724 79.6176486 8.4921875 80.86328125 C7.7084375 81.72953125 6.9246875 82.59578125 6.1171875 83.48828125 C5.2509375 84.27203125 4.3846875 85.05578125 3.4921875 85.86328125 C2.88117188 86.41757812 2.27015625 86.971875 1.640625 87.54296875 C-8.32678848 95.98808636 -19.80780883 99.04918833 -32.5703125 99.11328125 C-33.56998047 99.13390625 -34.56964844 99.15453125 -35.59960938 99.17578125 C-50.4866038 99.25316654 -61.46973956 93.34892978 -72.1875 83.26953125 C-84.12011167 70.894971 -88.07667394 56.07437146 -87.78515625 39.26171875 C-87.14526625 24.56016635 -79.14378961 11.62222876 -68.5078125 1.86328125 C-47.32432424 -14.07241679 -21.86128113 -14.79596853 0 0 Z " fill="#d91c81" transform="translate(154.5078125,176.13671875)"/>
<path d="M0 0 C11.68608486 6.55279052 20.51813322 16.38850535 24.32348633 29.46826172 C27.00384607 42.09303731 25.02108235 55.23389243 18.15625 66.09765625 C16.47525113 68.39553544 14.71189749 70.47421436 12.765625 72.55078125 C12.17007813 73.18757813 11.57453125 73.824375 10.9609375 74.48046875 C0.77219136 84.33099925 -11.77444225 86.02464376 -25.2578125 85.828125 C-30.92984985 85.61629306 -35.35618642 84.49043594 -40.234375 81.55078125 C-41.0078125 81.10347656 -41.78125 80.65617187 -42.578125 80.1953125 C-52.66689814 73.92345853 -60.32194982 65.27843122 -63.80371094 53.64916992 C-66.48501965 40.58463001 -64.88450115 27.16688811 -57.58984375 16.04296875 C-44.29210028 -2.1476239 -20.94078828 -9.53074338 0 0 Z " fill="#d91c81" transform="translate(417.234375,271.44921875)"/>
<path d="M0 0 C11.68608486 6.55279052 20.51813322 16.38850535 24.32348633 29.46826172 C27.00384607 42.09303731 25.02108235 55.23389243 18.15625 66.09765625 C16.47525113 68.39553544 14.71189749 70.47421436 12.765625 72.55078125 C12.17007813 73.18757813 11.57453125 73.824375 10.9609375 74.48046875 C0.77219136 84.33099925 -11.77444225 86.02464376 -25.2578125 85.828125 C-30.92984985 85.61629306 -35.35618642 84.49043594 -40.234375 81.55078125 C-41.0078125 81.10347656 -41.78125 80.65617187 -42.578125 80.1953125 C-52.66689814 73.92345853 -60.32194982 65.27843122 -63.80371094 53.64916992 C-66.48501965 40.58463001 -64.88450115 27.16688811 -57.58984375 16.04296875 C-44.29210028 -2.1476239 -20.94078828 -9.53074338 0 0 Z " fill="#d91c81" transform="translate(219.234375,73.44921875)"/>
<path d="M0 0 C0.33 0 0.66 0 1 0 C1 27.39 1 54.78 1 83 C-9.04132943 74.3931462 -17.12741982 63.18669878 -18.19287109 49.52734375 C-18.75544319 31.44320811 -17.06577184 18.28584411 -4.4765625 4.30859375 C-3.35350038 3.16930241 -2.1821569 2.07784894 -1 1 C-0.67 0.67 -0.34 0.34 0 0 Z " fill="#d91c81" transform="translate(255,349)"/>
</svg>
